M48
; DRILL file {KiCad 8.0.2-8.0.2-0~ubuntu22.04.1} date 2024-05-02T20:41:00+0200
; FORMAT={-:-/ absolute / inch / decimal}
; #@! TF.CreationDate,2024-05-02T20:41:00+02:00
; #@! TF.GenerationSoftware,Kicad,Pcbnew,8.0.2-8.0.2-0~ubuntu22.04.1
; #@! TF.FileFunction,Plated,1,2,PTH
FMAT,2
INCH
; #@! TA.AperFunction,Plated,PTH,ComponentDrill
T1C0.0315
; #@! TA.AperFunction,Plated,PTH,ComponentDrill
T2C0.0335
; #@! TA.AperFunction,Plated,PTH,ComponentDrill
T3C0.0394
; #@! TA.AperFunction,Plated,PTH,ComponentDrill
T4C0.0433
%
G90
G05
T1
X4.0183Y-3.1965
X4.0183Y-3.2965
X4.0183Y-3.3965
X4.0183Y-3.4965
X4.3281Y-3.1965
X4.3281Y-3.2965
X4.3281Y-3.3965
X4.3281Y-3.4965
X4.8057Y-3.1965
X4.8057Y-3.2965
X4.8057Y-3.3965
X4.8057Y-3.4965
X5.1156Y-3.1965
X5.1156Y-3.2965
X5.1156Y-3.3965
X5.1156Y-3.4965
T2
X4.1732Y-2.6181
X4.9803Y-2.6181
T3
X4.4244Y-2.0866
X4.5244Y-2.0866
X4.6244Y-2.0866
X4.7244Y-2.0866
T4
X4.4803Y-3.2087
X4.4803Y-3.4646
X4.6575Y-3.2087
X4.6575Y-3.4646
M30
