%TF.GenerationSoftware,KiCad,Pcbnew,8.0.2-8.0.2-0~ubuntu22.04.1*%
%TF.CreationDate,2024-05-02T20:41:03+02:00*%
%TF.ProjectId,Schimpfolino_EEPROM,53636869-6d70-4666-9f6c-696e6f5f4545,rev?*%
%TF.SameCoordinates,Original*%
%TF.FileFunction,Legend,Top*%
%TF.FilePolarity,Positive*%
%FSLAX46Y46*%
G04 Gerber Fmt 4.6, Leading zero omitted, Abs format (unit mm)*
G04 Created by KiCad (PCBNEW 8.0.2-8.0.2-0~ubuntu22.04.1) date 2024-05-02 20:41:03*
%MOMM*%
%LPD*%
G01*
G04 APERTURE LIST*
%ADD10C,0.150000*%
%ADD11C,0.120000*%
G04 APERTURE END LIST*
D10*
X111289160Y-90822200D02*
X111432017Y-90869819D01*
X111432017Y-90869819D02*
X111670112Y-90869819D01*
X111670112Y-90869819D02*
X111765350Y-90822200D01*
X111765350Y-90822200D02*
X111812969Y-90774580D01*
X111812969Y-90774580D02*
X111860588Y-90679342D01*
X111860588Y-90679342D02*
X111860588Y-90584104D01*
X111860588Y-90584104D02*
X111812969Y-90488866D01*
X111812969Y-90488866D02*
X111765350Y-90441247D01*
X111765350Y-90441247D02*
X111670112Y-90393628D01*
X111670112Y-90393628D02*
X111479636Y-90346009D01*
X111479636Y-90346009D02*
X111384398Y-90298390D01*
X111384398Y-90298390D02*
X111336779Y-90250771D01*
X111336779Y-90250771D02*
X111289160Y-90155533D01*
X111289160Y-90155533D02*
X111289160Y-90060295D01*
X111289160Y-90060295D02*
X111336779Y-89965057D01*
X111336779Y-89965057D02*
X111384398Y-89917438D01*
X111384398Y-89917438D02*
X111479636Y-89869819D01*
X111479636Y-89869819D02*
X111717731Y-89869819D01*
X111717731Y-89869819D02*
X111860588Y-89917438D01*
X112717731Y-90822200D02*
X112622493Y-90869819D01*
X112622493Y-90869819D02*
X112432017Y-90869819D01*
X112432017Y-90869819D02*
X112336779Y-90822200D01*
X112336779Y-90822200D02*
X112289160Y-90774580D01*
X112289160Y-90774580D02*
X112241541Y-90679342D01*
X112241541Y-90679342D02*
X112241541Y-90393628D01*
X112241541Y-90393628D02*
X112289160Y-90298390D01*
X112289160Y-90298390D02*
X112336779Y-90250771D01*
X112336779Y-90250771D02*
X112432017Y-90203152D01*
X112432017Y-90203152D02*
X112622493Y-90203152D01*
X112622493Y-90203152D02*
X112717731Y-90250771D01*
X113146303Y-90869819D02*
X113146303Y-89869819D01*
X113574874Y-90869819D02*
X113574874Y-90346009D01*
X113574874Y-90346009D02*
X113527255Y-90250771D01*
X113527255Y-90250771D02*
X113432017Y-90203152D01*
X113432017Y-90203152D02*
X113289160Y-90203152D01*
X113289160Y-90203152D02*
X113193922Y-90250771D01*
X113193922Y-90250771D02*
X113146303Y-90298390D01*
X114051065Y-90869819D02*
X114051065Y-90203152D01*
X114051065Y-89869819D02*
X114003446Y-89917438D01*
X114003446Y-89917438D02*
X114051065Y-89965057D01*
X114051065Y-89965057D02*
X114098684Y-89917438D01*
X114098684Y-89917438D02*
X114051065Y-89869819D01*
X114051065Y-89869819D02*
X114051065Y-89965057D01*
X114527255Y-90869819D02*
X114527255Y-90203152D01*
X114527255Y-90298390D02*
X114574874Y-90250771D01*
X114574874Y-90250771D02*
X114670112Y-90203152D01*
X114670112Y-90203152D02*
X114812969Y-90203152D01*
X114812969Y-90203152D02*
X114908207Y-90250771D01*
X114908207Y-90250771D02*
X114955826Y-90346009D01*
X114955826Y-90346009D02*
X114955826Y-90869819D01*
X114955826Y-90346009D02*
X115003445Y-90250771D01*
X115003445Y-90250771D02*
X115098683Y-90203152D01*
X115098683Y-90203152D02*
X115241540Y-90203152D01*
X115241540Y-90203152D02*
X115336779Y-90250771D01*
X115336779Y-90250771D02*
X115384398Y-90346009D01*
X115384398Y-90346009D02*
X115384398Y-90869819D01*
X115860588Y-90203152D02*
X115860588Y-91203152D01*
X115860588Y-90250771D02*
X115955826Y-90203152D01*
X115955826Y-90203152D02*
X116146302Y-90203152D01*
X116146302Y-90203152D02*
X116241540Y-90250771D01*
X116241540Y-90250771D02*
X116289159Y-90298390D01*
X116289159Y-90298390D02*
X116336778Y-90393628D01*
X116336778Y-90393628D02*
X116336778Y-90679342D01*
X116336778Y-90679342D02*
X116289159Y-90774580D01*
X116289159Y-90774580D02*
X116241540Y-90822200D01*
X116241540Y-90822200D02*
X116146302Y-90869819D01*
X116146302Y-90869819D02*
X115955826Y-90869819D01*
X115955826Y-90869819D02*
X115860588Y-90822200D01*
X116622493Y-90203152D02*
X117003445Y-90203152D01*
X116765350Y-90869819D02*
X116765350Y-90012676D01*
X116765350Y-90012676D02*
X116812969Y-89917438D01*
X116812969Y-89917438D02*
X116908207Y-89869819D01*
X116908207Y-89869819D02*
X117003445Y-89869819D01*
X117479636Y-90869819D02*
X117384398Y-90822200D01*
X117384398Y-90822200D02*
X117336779Y-90774580D01*
X117336779Y-90774580D02*
X117289160Y-90679342D01*
X117289160Y-90679342D02*
X117289160Y-90393628D01*
X117289160Y-90393628D02*
X117336779Y-90298390D01*
X117336779Y-90298390D02*
X117384398Y-90250771D01*
X117384398Y-90250771D02*
X117479636Y-90203152D01*
X117479636Y-90203152D02*
X117622493Y-90203152D01*
X117622493Y-90203152D02*
X117717731Y-90250771D01*
X117717731Y-90250771D02*
X117765350Y-90298390D01*
X117765350Y-90298390D02*
X117812969Y-90393628D01*
X117812969Y-90393628D02*
X117812969Y-90679342D01*
X117812969Y-90679342D02*
X117765350Y-90774580D01*
X117765350Y-90774580D02*
X117717731Y-90822200D01*
X117717731Y-90822200D02*
X117622493Y-90869819D01*
X117622493Y-90869819D02*
X117479636Y-90869819D01*
X118384398Y-90869819D02*
X118289160Y-90822200D01*
X118289160Y-90822200D02*
X118241541Y-90726961D01*
X118241541Y-90726961D02*
X118241541Y-89869819D01*
X118765351Y-90869819D02*
X118765351Y-90203152D01*
X118765351Y-89869819D02*
X118717732Y-89917438D01*
X118717732Y-89917438D02*
X118765351Y-89965057D01*
X118765351Y-89965057D02*
X118812970Y-89917438D01*
X118812970Y-89917438D02*
X118765351Y-89869819D01*
X118765351Y-89869819D02*
X118765351Y-89965057D01*
X119241541Y-90203152D02*
X119241541Y-90869819D01*
X119241541Y-90298390D02*
X119289160Y-90250771D01*
X119289160Y-90250771D02*
X119384398Y-90203152D01*
X119384398Y-90203152D02*
X119527255Y-90203152D01*
X119527255Y-90203152D02*
X119622493Y-90250771D01*
X119622493Y-90250771D02*
X119670112Y-90346009D01*
X119670112Y-90346009D02*
X119670112Y-90869819D01*
X120289160Y-90869819D02*
X120193922Y-90822200D01*
X120193922Y-90822200D02*
X120146303Y-90774580D01*
X120146303Y-90774580D02*
X120098684Y-90679342D01*
X120098684Y-90679342D02*
X120098684Y-90393628D01*
X120098684Y-90393628D02*
X120146303Y-90298390D01*
X120146303Y-90298390D02*
X120193922Y-90250771D01*
X120193922Y-90250771D02*
X120289160Y-90203152D01*
X120289160Y-90203152D02*
X120432017Y-90203152D01*
X120432017Y-90203152D02*
X120527255Y-90250771D01*
X120527255Y-90250771D02*
X120574874Y-90298390D01*
X120574874Y-90298390D02*
X120622493Y-90393628D01*
X120622493Y-90393628D02*
X120622493Y-90679342D01*
X120622493Y-90679342D02*
X120574874Y-90774580D01*
X120574874Y-90774580D02*
X120527255Y-90822200D01*
X120527255Y-90822200D02*
X120432017Y-90869819D01*
X120432017Y-90869819D02*
X120289160Y-90869819D01*
D11*
%TO.C,Brd1*%
X102600000Y-51300000D02*
X130000000Y-51300000D01*
X102600000Y-78600000D02*
X102600000Y-51300000D01*
X103022000Y-54595000D02*
X126122000Y-54595000D01*
X103022000Y-71195000D02*
X103022000Y-54595000D01*
X111301000Y-51789000D02*
X111301000Y-54202000D01*
X111301000Y-51789000D02*
X121080000Y-51789000D01*
X121080000Y-51789000D02*
X121080000Y-54202000D01*
X121080000Y-54202000D02*
X111301000Y-54202000D01*
X126122000Y-54595000D02*
X129208000Y-54595000D01*
X126122000Y-71195000D02*
X103022000Y-71195000D01*
X126122000Y-71195000D02*
X129462000Y-71220000D01*
X129462000Y-54583000D02*
X129208000Y-54595000D01*
X129462000Y-71220000D02*
X129462000Y-54583000D01*
X130000000Y-51300000D02*
X130000000Y-78600000D01*
X130000000Y-78600000D02*
X102600000Y-78600000D01*
%TO.C,SW2*%
X112800000Y-82500000D02*
X112800000Y-87000000D01*
X115300000Y-88250000D02*
X116800000Y-88250000D01*
X116800000Y-81250000D02*
X115300000Y-81250000D01*
X119300000Y-87000000D02*
X119300000Y-82500000D01*
%TD*%
M02*
