%TF.GenerationSoftware,KiCad,Pcbnew,8.0.2-8.0.2-0~ubuntu22.04.1*%
%TF.CreationDate,2024-05-02T20:41:03+02:00*%
%TF.ProjectId,Schimpfolino_EEPROM,53636869-6d70-4666-9f6c-696e6f5f4545,rev?*%
%TF.SameCoordinates,Original*%
%TF.FileFunction,Copper,L1,Top*%
%TF.FilePolarity,Positive*%
%FSLAX46Y46*%
G04 Gerber Fmt 4.6, Leading zero omitted, Abs format (unit mm)*
G04 Created by KiCad (PCBNEW 8.0.2-8.0.2-0~ubuntu22.04.1) date 2024-05-02 20:41:03*
%MOMM*%
%LPD*%
G01*
G04 APERTURE LIST*
%TA.AperFunction,ComponentPad*%
%ADD10O,1.600000X2.000000*%
%TD*%
%TA.AperFunction,ComponentPad*%
%ADD11C,2.000000*%
%TD*%
%TA.AperFunction,ComponentPad*%
%ADD12R,1.600000X2.000000*%
%TD*%
%TA.AperFunction,ComponentPad*%
%ADD13R,1.308000X1.308000*%
%TD*%
%TA.AperFunction,ComponentPad*%
%ADD14C,1.308000*%
%TD*%
%TA.AperFunction,Conductor*%
%ADD15C,0.200000*%
%TD*%
G04 APERTURE END LIST*
D10*
%TO.P,Brd1,1,GND*%
%TO.N,GND*%
X112380000Y-53000000D03*
%TO.P,Brd1,2,VCC*%
%TO.N,+3V0*%
X114920000Y-53000000D03*
%TO.P,Brd1,3,SCL*%
%TO.N,Net-(Brd1-SCL)*%
X117460000Y-53000000D03*
%TO.P,Brd1,4,SDA*%
%TO.N,Net-(Brd1-SDA)*%
X120000000Y-53000000D03*
%TD*%
D11*
%TO.P,SW2,1,1*%
%TO.N,GND*%
X113800000Y-88000000D03*
X113800000Y-81500000D03*
%TO.P,SW2,2,2*%
%TO.N,Net-(U1-PB1)*%
X118300000Y-88000000D03*
X118300000Y-81500000D03*
%TD*%
D12*
%TO.P,BT1,1,+*%
%TO.N,+3V0*%
X126500000Y-66499879D03*
D10*
%TO.P,BT1,2,-*%
%TO.N,GND*%
X106000000Y-66499879D03*
%TD*%
D13*
%TO.P,U2,1,A0*%
%TO.N,GND*%
X102065000Y-88810000D03*
D14*
%TO.P,U2,2,A1*%
X102065000Y-86270000D03*
%TO.P,U2,3,A2*%
X102065000Y-83730000D03*
%TO.P,U2,4,GND*%
X102065000Y-81190000D03*
%TO.P,U2,5,SDA*%
%TO.N,Net-(Brd1-SDA)*%
X109935000Y-81190000D03*
%TO.P,U2,6,SCL*%
%TO.N,Net-(Brd1-SCL)*%
X109935000Y-83730000D03*
%TO.P,U2,7,WP*%
%TO.N,unconnected-(U2-WP-Pad7)*%
X109935000Y-86270000D03*
%TO.P,U2,8,VCC*%
%TO.N,+3V0*%
X109935000Y-88810000D03*
%TD*%
D13*
%TO.P,U1,1,~{RESET}/PB5*%
%TO.N,unconnected-(U1-~{RESET}{slash}PB5-Pad1)*%
X122065000Y-88810000D03*
D14*
%TO.P,U1,2,XTAL1/PB3*%
%TO.N,unconnected-(U1-XTAL1{slash}PB3-Pad2)*%
X122065000Y-86270000D03*
%TO.P,U1,3,XTAL2/PB4*%
%TO.N,unconnected-(U1-XTAL2{slash}PB4-Pad3)*%
X122065000Y-83730000D03*
%TO.P,U1,4,GND*%
%TO.N,GND*%
X122065000Y-81190000D03*
%TO.P,U1,5,AREF/PB0*%
%TO.N,Net-(Brd1-SDA)*%
X129935000Y-81190000D03*
%TO.P,U1,6,PB1*%
%TO.N,Net-(U1-PB1)*%
X129935000Y-83730000D03*
%TO.P,U1,7,PB2*%
%TO.N,Net-(Brd1-SCL)*%
X129935000Y-86270000D03*
%TO.P,U1,8,VCC*%
%TO.N,+3V0*%
X129935000Y-88810000D03*
%TD*%
D15*
%TO.N,Net-(Brd1-SDA)*%
X120000000Y-53000000D02*
X120000000Y-71125000D01*
X123414160Y-81190000D02*
X121804160Y-82800000D01*
X129935000Y-81190000D02*
X123414160Y-81190000D01*
X120000000Y-71125000D02*
X109935000Y-81190000D01*
X111545000Y-82800000D02*
X109935000Y-81190000D01*
X121804160Y-82800000D02*
X111545000Y-82800000D01*
%TO.N,Net-(Brd1-SCL)*%
X129935000Y-86270000D02*
X128665000Y-85000000D01*
X109935000Y-83730000D02*
X108981000Y-82776000D01*
X108981000Y-82776000D02*
X108981000Y-61479000D01*
X108981000Y-61479000D02*
X117460000Y-53000000D01*
X111205000Y-85000000D02*
X109935000Y-83730000D01*
X128665000Y-85000000D02*
X111205000Y-85000000D01*
%TD*%
%TA.AperFunction,Conductor*%
%TO.N,GND*%
G36*
X131442539Y-50520185D02*
G01*
X131488294Y-50572989D01*
X131499500Y-50624500D01*
X131499500Y-91375500D01*
X131479815Y-91442539D01*
X131427011Y-91488294D01*
X131375500Y-91499500D01*
X100624500Y-91499500D01*
X100557461Y-91479815D01*
X100511706Y-91427011D01*
X100500500Y-91375500D01*
X100500500Y-81189999D01*
X100906056Y-81189999D01*
X100906056Y-81190000D01*
X100925788Y-81402954D01*
X100925789Y-81402956D01*
X100984315Y-81608654D01*
X100984321Y-81608669D01*
X101079642Y-81800099D01*
X101079647Y-81800107D01*
X101088980Y-81812465D01*
X101665000Y-81236445D01*
X101665000Y-81242661D01*
X101692259Y-81344394D01*
X101744920Y-81435606D01*
X101819394Y-81510080D01*
X101910606Y-81562741D01*
X102012339Y-81590000D01*
X102018553Y-81590000D01*
X101445086Y-82163465D01*
X101548413Y-82227443D01*
X101548414Y-82227444D01*
X101747837Y-82304700D01*
X101926564Y-82338111D01*
X101988845Y-82369779D01*
X102024118Y-82430092D01*
X102021184Y-82499900D01*
X101980975Y-82557040D01*
X101926564Y-82581889D01*
X101747837Y-82615299D01*
X101548416Y-82692554D01*
X101548410Y-82692557D01*
X101445087Y-82756532D01*
X101445086Y-82756533D01*
X102018554Y-83330000D01*
X102012339Y-83330000D01*
X101910606Y-83357259D01*
X101819394Y-83409920D01*
X101744920Y-83484394D01*
X101692259Y-83575606D01*
X101665000Y-83677339D01*
X101665000Y-83683553D01*
X101088980Y-83107533D01*
X101079646Y-83119893D01*
X100984321Y-83311330D01*
X100984315Y-83311345D01*
X100925789Y-83517043D01*
X100925788Y-83517045D01*
X100906056Y-83729999D01*
X100906056Y-83730000D01*
X100925788Y-83942954D01*
X100925789Y-83942956D01*
X100984315Y-84148654D01*
X100984321Y-84148669D01*
X101079642Y-84340099D01*
X101079647Y-84340107D01*
X101088980Y-84352465D01*
X101665000Y-83776445D01*
X101665000Y-83782661D01*
X101692259Y-83884394D01*
X101744920Y-83975606D01*
X101819394Y-84050080D01*
X101910606Y-84102741D01*
X102012339Y-84130000D01*
X102018553Y-84130000D01*
X101445086Y-84703465D01*
X101548413Y-84767443D01*
X101548414Y-84767444D01*
X101747837Y-84844700D01*
X101926564Y-84878111D01*
X101988845Y-84909779D01*
X102024118Y-84970092D01*
X102021184Y-85039900D01*
X101980975Y-85097040D01*
X101926564Y-85121889D01*
X101747837Y-85155299D01*
X101548416Y-85232554D01*
X101548410Y-85232557D01*
X101445087Y-85296532D01*
X101445086Y-85296533D01*
X102018554Y-85870000D01*
X102012339Y-85870000D01*
X101910606Y-85897259D01*
X101819394Y-85949920D01*
X101744920Y-86024394D01*
X101692259Y-86115606D01*
X101665000Y-86217339D01*
X101665000Y-86223553D01*
X101088980Y-85647533D01*
X101079646Y-85659893D01*
X100984321Y-85851330D01*
X100984315Y-85851345D01*
X100925789Y-86057043D01*
X100925788Y-86057045D01*
X100906056Y-86269999D01*
X100906056Y-86270000D01*
X100925788Y-86482954D01*
X100925789Y-86482956D01*
X100984315Y-86688654D01*
X100984321Y-86688669D01*
X101079642Y-86880099D01*
X101079647Y-86880107D01*
X101088980Y-86892465D01*
X101665000Y-86316445D01*
X101665000Y-86322661D01*
X101692259Y-86424394D01*
X101744920Y-86515606D01*
X101819394Y-86590080D01*
X101910606Y-86642741D01*
X102012339Y-86670000D01*
X102018553Y-86670000D01*
X101445086Y-87243465D01*
X101548413Y-87307443D01*
X101548414Y-87307444D01*
X101747837Y-87384700D01*
X101883769Y-87410111D01*
X101946050Y-87441779D01*
X101981323Y-87502092D01*
X101978389Y-87571900D01*
X101938180Y-87629040D01*
X101873462Y-87655371D01*
X101860984Y-87656000D01*
X101363155Y-87656000D01*
X101303627Y-87662401D01*
X101303620Y-87662403D01*
X101168913Y-87712645D01*
X101168906Y-87712649D01*
X101053812Y-87798809D01*
X101053809Y-87798812D01*
X100967649Y-87913906D01*
X100967645Y-87913913D01*
X100917403Y-88048620D01*
X100917401Y-88048627D01*
X100911000Y-88108155D01*
X100911000Y-88560000D01*
X101749314Y-88560000D01*
X101744920Y-88564394D01*
X101692259Y-88655606D01*
X101665000Y-88757339D01*
X101665000Y-88862661D01*
X101692259Y-88964394D01*
X101744920Y-89055606D01*
X101749314Y-89060000D01*
X100911000Y-89060000D01*
X100911000Y-89511844D01*
X100917401Y-89571372D01*
X100917403Y-89571379D01*
X100967645Y-89706086D01*
X100967649Y-89706093D01*
X101053809Y-89821187D01*
X101053812Y-89821190D01*
X101168906Y-89907350D01*
X101168913Y-89907354D01*
X101303620Y-89957596D01*
X101303627Y-89957598D01*
X101363155Y-89963999D01*
X101363172Y-89964000D01*
X101815000Y-89964000D01*
X101815000Y-89125686D01*
X101819394Y-89130080D01*
X101910606Y-89182741D01*
X102012339Y-89210000D01*
X102117661Y-89210000D01*
X102219394Y-89182741D01*
X102310606Y-89130080D01*
X102315000Y-89125686D01*
X102315000Y-89964000D01*
X102766828Y-89964000D01*
X102766844Y-89963999D01*
X102826372Y-89957598D01*
X102826379Y-89957596D01*
X102961086Y-89907354D01*
X102961093Y-89907350D01*
X103076187Y-89821190D01*
X103076190Y-89821187D01*
X103162350Y-89706093D01*
X103162354Y-89706086D01*
X103212596Y-89571379D01*
X103212598Y-89571372D01*
X103218999Y-89511844D01*
X103219000Y-89511827D01*
X103219000Y-89060000D01*
X102380686Y-89060000D01*
X102385080Y-89055606D01*
X102437741Y-88964394D01*
X102465000Y-88862661D01*
X102465000Y-88757339D01*
X102437741Y-88655606D01*
X102385080Y-88564394D01*
X102380686Y-88560000D01*
X103219000Y-88560000D01*
X103219000Y-88108172D01*
X103218999Y-88108155D01*
X103212598Y-88048627D01*
X103212596Y-88048620D01*
X103162354Y-87913913D01*
X103162350Y-87913906D01*
X103076190Y-87798812D01*
X103076187Y-87798809D01*
X102961093Y-87712649D01*
X102961086Y-87712645D01*
X102826379Y-87662403D01*
X102826372Y-87662401D01*
X102766844Y-87656000D01*
X102269016Y-87656000D01*
X102201977Y-87636315D01*
X102156222Y-87583511D01*
X102146278Y-87514353D01*
X102175303Y-87450797D01*
X102234081Y-87413023D01*
X102246231Y-87410111D01*
X102382162Y-87384700D01*
X102581585Y-87307444D01*
X102581589Y-87307442D01*
X102684911Y-87243466D01*
X102684911Y-87243465D01*
X102111448Y-86670000D01*
X102117661Y-86670000D01*
X102219394Y-86642741D01*
X102310606Y-86590080D01*
X102385080Y-86515606D01*
X102437741Y-86424394D01*
X102465000Y-86322661D01*
X102465000Y-86316446D01*
X103041018Y-86892464D01*
X103041019Y-86892464D01*
X103050352Y-86880107D01*
X103050355Y-86880102D01*
X103145678Y-86688669D01*
X103145684Y-86688654D01*
X103204210Y-86482956D01*
X103204211Y-86482954D01*
X103223944Y-86270000D01*
X103223944Y-86269999D01*
X103204211Y-86057045D01*
X103204210Y-86057043D01*
X103145684Y-85851345D01*
X103145678Y-85851330D01*
X103050357Y-85659901D01*
X103050355Y-85659898D01*
X103041018Y-85647534D01*
X102465000Y-86223552D01*
X102465000Y-86217339D01*
X102437741Y-86115606D01*
X102385080Y-86024394D01*
X102310606Y-85949920D01*
X102219394Y-85897259D01*
X102117661Y-85870000D01*
X102111447Y-85870000D01*
X102684912Y-85296533D01*
X102581586Y-85232556D01*
X102581585Y-85232555D01*
X102382162Y-85155299D01*
X102203435Y-85121889D01*
X102141154Y-85090221D01*
X102105881Y-85029908D01*
X102108815Y-84960100D01*
X102149024Y-84902960D01*
X102203435Y-84878111D01*
X102382162Y-84844700D01*
X102581585Y-84767444D01*
X102581589Y-84767442D01*
X102684911Y-84703466D01*
X102684911Y-84703465D01*
X102111448Y-84130000D01*
X102117661Y-84130000D01*
X102219394Y-84102741D01*
X102310606Y-84050080D01*
X102385080Y-83975606D01*
X102437741Y-83884394D01*
X102465000Y-83782661D01*
X102465000Y-83776446D01*
X103041018Y-84352464D01*
X103041019Y-84352464D01*
X103050352Y-84340107D01*
X103050355Y-84340102D01*
X103145678Y-84148669D01*
X103145684Y-84148654D01*
X103204210Y-83942956D01*
X103204211Y-83942954D01*
X103223944Y-83730000D01*
X103223944Y-83729999D01*
X103204211Y-83517045D01*
X103204210Y-83517043D01*
X103145684Y-83311345D01*
X103145678Y-83311330D01*
X103050357Y-83119901D01*
X103050355Y-83119898D01*
X103041018Y-83107534D01*
X102465000Y-83683552D01*
X102465000Y-83677339D01*
X102437741Y-83575606D01*
X102385080Y-83484394D01*
X102310606Y-83409920D01*
X102219394Y-83357259D01*
X102117661Y-83330000D01*
X102111447Y-83330000D01*
X102586391Y-82855054D01*
X108380498Y-82855054D01*
X108421423Y-83007785D01*
X108435279Y-83031784D01*
X108500477Y-83144712D01*
X108500481Y-83144717D01*
X108619349Y-83263585D01*
X108619354Y-83263589D01*
X108761271Y-83405507D01*
X108794756Y-83466829D01*
X108795410Y-83511205D01*
X108795825Y-83511244D01*
X108795468Y-83515094D01*
X108795481Y-83515959D01*
X108795296Y-83516945D01*
X108775554Y-83729999D01*
X108775554Y-83730000D01*
X108795295Y-83943047D01*
X108795296Y-83943050D01*
X108853846Y-84148835D01*
X108853849Y-84148841D01*
X108923647Y-84289014D01*
X108949219Y-84340370D01*
X109078159Y-84511114D01*
X109236278Y-84655258D01*
X109236283Y-84655261D01*
X109236286Y-84655263D01*
X109418186Y-84767891D01*
X109418187Y-84767891D01*
X109418190Y-84767893D01*
X109617703Y-84845185D01*
X109793845Y-84878111D01*
X109856125Y-84909779D01*
X109891398Y-84970092D01*
X109888464Y-85039900D01*
X109848255Y-85097040D01*
X109793845Y-85121888D01*
X109617703Y-85154815D01*
X109491533Y-85203693D01*
X109418192Y-85232106D01*
X109418186Y-85232108D01*
X109236286Y-85344736D01*
X109236283Y-85344738D01*
X109236279Y-85344740D01*
X109236278Y-85344742D01*
X109209983Y-85368713D01*
X109078158Y-85488887D01*
X108949219Y-85659629D01*
X108853849Y-85851158D01*
X108853846Y-85851164D01*
X108795296Y-86056949D01*
X108795295Y-86056952D01*
X108775554Y-86269999D01*
X108775554Y-86270000D01*
X108795295Y-86483047D01*
X108795296Y-86483050D01*
X108853846Y-86688835D01*
X108853849Y-86688840D01*
X108949219Y-86880370D01*
X109078159Y-87051114D01*
X109236278Y-87195258D01*
X109236283Y-87195261D01*
X109236286Y-87195263D01*
X109418186Y-87307891D01*
X109418187Y-87307891D01*
X109418190Y-87307893D01*
X109617703Y-87385185D01*
X109793845Y-87418111D01*
X109856125Y-87449779D01*
X109891398Y-87510092D01*
X109888464Y-87579900D01*
X109848255Y-87637040D01*
X109793845Y-87661888D01*
X109617703Y-87694815D01*
X109491533Y-87743693D01*
X109418192Y-87772106D01*
X109418186Y-87772108D01*
X109236286Y-87884736D01*
X109236283Y-87884738D01*
X109236279Y-87884740D01*
X109236278Y-87884742D01*
X109109840Y-88000005D01*
X109078158Y-88028887D01*
X108949219Y-88199629D01*
X108853849Y-88391158D01*
X108853846Y-88391164D01*
X108795296Y-88596949D01*
X108795295Y-88596952D01*
X108775554Y-88809999D01*
X108775554Y-88810000D01*
X108795295Y-89023047D01*
X108795296Y-89023050D01*
X108853846Y-89228835D01*
X108853849Y-89228841D01*
X108869601Y-89260475D01*
X108949219Y-89420370D01*
X109078159Y-89591114D01*
X109236278Y-89735258D01*
X109236283Y-89735261D01*
X109236286Y-89735263D01*
X109418186Y-89847891D01*
X109418187Y-89847891D01*
X109418190Y-89847893D01*
X109617703Y-89925185D01*
X109828020Y-89964500D01*
X109828022Y-89964500D01*
X110041978Y-89964500D01*
X110041980Y-89964500D01*
X110252297Y-89925185D01*
X110451810Y-89847893D01*
X110633722Y-89735258D01*
X110791841Y-89591114D01*
X110920781Y-89420370D01*
X111016151Y-89228840D01*
X111016151Y-89228837D01*
X111016153Y-89228835D01*
X111074703Y-89023050D01*
X111074704Y-89023047D01*
X111094446Y-88810000D01*
X111094446Y-88809999D01*
X111074704Y-88596952D01*
X111074703Y-88596949D01*
X111016153Y-88391164D01*
X111016150Y-88391158D01*
X110989535Y-88337708D01*
X110920781Y-88199630D01*
X110791841Y-88028886D01*
X110760148Y-87999994D01*
X112294859Y-87999994D01*
X112294859Y-88000005D01*
X112315385Y-88247729D01*
X112315387Y-88247738D01*
X112376412Y-88488717D01*
X112476266Y-88716364D01*
X112576564Y-88869882D01*
X113276212Y-88170234D01*
X113287482Y-88212292D01*
X113359890Y-88337708D01*
X113462292Y-88440110D01*
X113587708Y-88512518D01*
X113629765Y-88523787D01*
X112929942Y-89223609D01*
X112976768Y-89260055D01*
X112976770Y-89260056D01*
X113195385Y-89378364D01*
X113195396Y-89378369D01*
X113430506Y-89459083D01*
X113675707Y-89500000D01*
X113924293Y-89500000D01*
X114169493Y-89459083D01*
X114404603Y-89378369D01*
X114404614Y-89378364D01*
X114623228Y-89260057D01*
X114623231Y-89260055D01*
X114670056Y-89223609D01*
X113970234Y-88523787D01*
X114012292Y-88512518D01*
X114137708Y-88440110D01*
X114240110Y-88337708D01*
X114312518Y-88212292D01*
X114323787Y-88170235D01*
X115023434Y-88869882D01*
X115123731Y-88716369D01*
X115223587Y-88488717D01*
X115284612Y-88247738D01*
X115284614Y-88247729D01*
X115305141Y-88000005D01*
X115305141Y-87999994D01*
X116794357Y-87999994D01*
X116794357Y-88000005D01*
X116814890Y-88247812D01*
X116814892Y-88247824D01*
X116875936Y-88488881D01*
X116975826Y-88716606D01*
X117111833Y-88924782D01*
X117111836Y-88924785D01*
X117280256Y-89107738D01*
X117476491Y-89260474D01*
X117476493Y-89260475D01*
X117694332Y-89378364D01*
X117695190Y-89378828D01*
X117816198Y-89420370D01*
X117928964Y-89459083D01*
X117930386Y-89459571D01*
X118175665Y-89500500D01*
X118424335Y-89500500D01*
X118669614Y-89459571D01*
X118904810Y-89378828D01*
X119123509Y-89260474D01*
X119319744Y-89107738D01*
X119488164Y-88924785D01*
X119624173Y-88716607D01*
X119724063Y-88488881D01*
X119785108Y-88247821D01*
X119789101Y-88199630D01*
X119805643Y-88000005D01*
X119805643Y-87999994D01*
X119785109Y-87752187D01*
X119785107Y-87752175D01*
X119724063Y-87511118D01*
X119624173Y-87283393D01*
X119488166Y-87075217D01*
X119465976Y-87051112D01*
X119319744Y-86892262D01*
X119123509Y-86739526D01*
X119123507Y-86739525D01*
X119123506Y-86739524D01*
X118904811Y-86621172D01*
X118904802Y-86621169D01*
X118669616Y-86540429D01*
X118424335Y-86499500D01*
X118175665Y-86499500D01*
X117930383Y-86540429D01*
X117695197Y-86621169D01*
X117695188Y-86621172D01*
X117476493Y-86739524D01*
X117280257Y-86892261D01*
X117111833Y-87075217D01*
X116975826Y-87283393D01*
X116875936Y-87511118D01*
X116814892Y-87752175D01*
X116814890Y-87752187D01*
X116794357Y-87999994D01*
X115305141Y-87999994D01*
X115284614Y-87752270D01*
X115284612Y-87752261D01*
X115223587Y-87511282D01*
X115123731Y-87283630D01*
X115023434Y-87130116D01*
X114323787Y-87829764D01*
X114312518Y-87787708D01*
X114240110Y-87662292D01*
X114137708Y-87559890D01*
X114012292Y-87487482D01*
X113970235Y-87476212D01*
X114670057Y-86776390D01*
X114670056Y-86776389D01*
X114623229Y-86739943D01*
X114404614Y-86621635D01*
X114404603Y-86621630D01*
X114169493Y-86540916D01*
X113924293Y-86500000D01*
X113675707Y-86500000D01*
X113430506Y-86540916D01*
X113195396Y-86621630D01*
X113195390Y-86621632D01*
X112976761Y-86739949D01*
X112929942Y-86776388D01*
X112929942Y-86776390D01*
X113629765Y-87476212D01*
X113587708Y-87487482D01*
X113462292Y-87559890D01*
X113359890Y-87662292D01*
X113287482Y-87787708D01*
X113276212Y-87829764D01*
X112576564Y-87130116D01*
X112476267Y-87283632D01*
X112376412Y-87511282D01*
X112315387Y-87752261D01*
X112315385Y-87752270D01*
X112294859Y-87999994D01*
X110760148Y-87999994D01*
X110633722Y-87884742D01*
X110633716Y-87884738D01*
X110633713Y-87884736D01*
X110451813Y-87772108D01*
X110451807Y-87772106D01*
X110252297Y-87694815D01*
X110076153Y-87661888D01*
X110013874Y-87630221D01*
X109978601Y-87569908D01*
X109981535Y-87500100D01*
X110021744Y-87442960D01*
X110076152Y-87418112D01*
X110252297Y-87385185D01*
X110451810Y-87307893D01*
X110633722Y-87195258D01*
X110791841Y-87051114D01*
X110920781Y-86880370D01*
X111016151Y-86688840D01*
X111016151Y-86688837D01*
X111016153Y-86688835D01*
X111065440Y-86515606D01*
X111074704Y-86483048D01*
X111094446Y-86270000D01*
X111074704Y-86056952D01*
X111034727Y-85916446D01*
X111016153Y-85851164D01*
X111016150Y-85851158D01*
X110977831Y-85774202D01*
X110965570Y-85705416D01*
X110992443Y-85640921D01*
X111049919Y-85601194D01*
X111119749Y-85598846D01*
X111120789Y-85599119D01*
X111125942Y-85600500D01*
X111125943Y-85600500D01*
X120908395Y-85600500D01*
X120975434Y-85620185D01*
X121021189Y-85672989D01*
X121031133Y-85742147D01*
X121019395Y-85779771D01*
X120983851Y-85851153D01*
X120983846Y-85851164D01*
X120925296Y-86056949D01*
X120925295Y-86056952D01*
X120905554Y-86269999D01*
X120905554Y-86270000D01*
X120925295Y-86483047D01*
X120925296Y-86483050D01*
X120983846Y-86688835D01*
X120983849Y-86688840D01*
X121079219Y-86880370D01*
X121208159Y-87051114D01*
X121366278Y-87195258D01*
X121366283Y-87195261D01*
X121366286Y-87195263D01*
X121548186Y-87307891D01*
X121548187Y-87307891D01*
X121548190Y-87307893D01*
X121747703Y-87385185D01*
X121878379Y-87409612D01*
X121940657Y-87441279D01*
X121975930Y-87501591D01*
X121972996Y-87571399D01*
X121932788Y-87628540D01*
X121868069Y-87654871D01*
X121855591Y-87655500D01*
X121363129Y-87655500D01*
X121363123Y-87655501D01*
X121303516Y-87661908D01*
X121168671Y-87712202D01*
X121168664Y-87712206D01*
X121053455Y-87798452D01*
X121053452Y-87798455D01*
X120967206Y-87913664D01*
X120967202Y-87913671D01*
X120916908Y-88048517D01*
X120914340Y-88072409D01*
X120910501Y-88108123D01*
X120910500Y-88108135D01*
X120910500Y-89511870D01*
X120910501Y-89511876D01*
X120916908Y-89571483D01*
X120967202Y-89706328D01*
X120967206Y-89706335D01*
X121053452Y-89821544D01*
X121053455Y-89821547D01*
X121168664Y-89907793D01*
X121168671Y-89907797D01*
X121303517Y-89958091D01*
X121303516Y-89958091D01*
X121310444Y-89958835D01*
X121363127Y-89964500D01*
X122766872Y-89964499D01*
X122826483Y-89958091D01*
X122961331Y-89907796D01*
X123076546Y-89821546D01*
X123162796Y-89706331D01*
X123213091Y-89571483D01*
X123219500Y-89511873D01*
X123219499Y-88108128D01*
X123213091Y-88048517D01*
X123205769Y-88028887D01*
X123162797Y-87913671D01*
X123162793Y-87913664D01*
X123076547Y-87798455D01*
X123076544Y-87798452D01*
X122961335Y-87712206D01*
X122961328Y-87712202D01*
X122826482Y-87661908D01*
X122826483Y-87661908D01*
X122766883Y-87655501D01*
X122766881Y-87655500D01*
X122766873Y-87655500D01*
X122766865Y-87655500D01*
X122274409Y-87655500D01*
X122207370Y-87635815D01*
X122161615Y-87583011D01*
X122151671Y-87513853D01*
X122180696Y-87450297D01*
X122239474Y-87412523D01*
X122251605Y-87409615D01*
X122382297Y-87385185D01*
X122581810Y-87307893D01*
X122763722Y-87195258D01*
X122921841Y-87051114D01*
X123050781Y-86880370D01*
X123146151Y-86688840D01*
X123146151Y-86688837D01*
X123146153Y-86688835D01*
X123195440Y-86515606D01*
X123204704Y-86483048D01*
X123224446Y-86270000D01*
X123204704Y-86056952D01*
X123164727Y-85916446D01*
X123146153Y-85851164D01*
X123146148Y-85851153D01*
X123110605Y-85779771D01*
X123098344Y-85710986D01*
X123125217Y-85646491D01*
X123182694Y-85606763D01*
X123221605Y-85600500D01*
X128364903Y-85600500D01*
X128431942Y-85620185D01*
X128452584Y-85636819D01*
X128761271Y-85945506D01*
X128794756Y-86006829D01*
X128795410Y-86051205D01*
X128795825Y-86051244D01*
X128795468Y-86055094D01*
X128795481Y-86055959D01*
X128795296Y-86056945D01*
X128775554Y-86269999D01*
X128775554Y-86270000D01*
X128795295Y-86483047D01*
X128795296Y-86483050D01*
X128853846Y-86688835D01*
X128853849Y-86688840D01*
X128949219Y-86880370D01*
X129078159Y-87051114D01*
X129236278Y-87195258D01*
X129236283Y-87195261D01*
X129236286Y-87195263D01*
X129418186Y-87307891D01*
X129418187Y-87307891D01*
X129418190Y-87307893D01*
X129617703Y-87385185D01*
X129793845Y-87418111D01*
X129856125Y-87449779D01*
X129891398Y-87510092D01*
X129888464Y-87579900D01*
X129848255Y-87637040D01*
X129793845Y-87661888D01*
X129617703Y-87694815D01*
X129491533Y-87743693D01*
X129418192Y-87772106D01*
X129418186Y-87772108D01*
X129236286Y-87884736D01*
X129236283Y-87884738D01*
X129236279Y-87884740D01*
X129236278Y-87884742D01*
X129109840Y-88000005D01*
X129078158Y-88028887D01*
X128949219Y-88199629D01*
X128853849Y-88391158D01*
X128853846Y-88391164D01*
X128795296Y-88596949D01*
X128795295Y-88596952D01*
X128775554Y-88809999D01*
X128775554Y-88810000D01*
X128795295Y-89023047D01*
X128795296Y-89023050D01*
X128853846Y-89228835D01*
X128853849Y-89228841D01*
X128869601Y-89260475D01*
X128949219Y-89420370D01*
X129078159Y-89591114D01*
X129236278Y-89735258D01*
X129236283Y-89735261D01*
X129236286Y-89735263D01*
X129418186Y-89847891D01*
X129418187Y-89847891D01*
X129418190Y-89847893D01*
X129617703Y-89925185D01*
X129828020Y-89964500D01*
X129828022Y-89964500D01*
X130041978Y-89964500D01*
X130041980Y-89964500D01*
X130252297Y-89925185D01*
X130451810Y-89847893D01*
X130633722Y-89735258D01*
X130791841Y-89591114D01*
X130920781Y-89420370D01*
X131016151Y-89228840D01*
X131016151Y-89228837D01*
X131016153Y-89228835D01*
X131074703Y-89023050D01*
X131074704Y-89023047D01*
X131094446Y-88810000D01*
X131094446Y-88809999D01*
X131074704Y-88596952D01*
X131074703Y-88596949D01*
X131016153Y-88391164D01*
X131016150Y-88391158D01*
X130989535Y-88337708D01*
X130920781Y-88199630D01*
X130791841Y-88028886D01*
X130633722Y-87884742D01*
X130633716Y-87884738D01*
X130633713Y-87884736D01*
X130451813Y-87772108D01*
X130451807Y-87772106D01*
X130252297Y-87694815D01*
X130076153Y-87661888D01*
X130013874Y-87630221D01*
X129978601Y-87569908D01*
X129981535Y-87500100D01*
X130021744Y-87442960D01*
X130076152Y-87418112D01*
X130252297Y-87385185D01*
X130451810Y-87307893D01*
X130633722Y-87195258D01*
X130791841Y-87051114D01*
X130920781Y-86880370D01*
X131016151Y-86688840D01*
X131016151Y-86688837D01*
X131016153Y-86688835D01*
X131065440Y-86515606D01*
X131074704Y-86483048D01*
X131094446Y-86270000D01*
X131074704Y-86056952D01*
X131034727Y-85916446D01*
X131016153Y-85851164D01*
X131016150Y-85851158D01*
X130946353Y-85710986D01*
X130920781Y-85659630D01*
X130791841Y-85488886D01*
X130633722Y-85344742D01*
X130633716Y-85344738D01*
X130633713Y-85344736D01*
X130451813Y-85232108D01*
X130451807Y-85232106D01*
X130252297Y-85154815D01*
X130076153Y-85121888D01*
X130013874Y-85090221D01*
X129978601Y-85029908D01*
X129981535Y-84960100D01*
X130021744Y-84902960D01*
X130076152Y-84878112D01*
X130252297Y-84845185D01*
X130451810Y-84767893D01*
X130633722Y-84655258D01*
X130791841Y-84511114D01*
X130920781Y-84340370D01*
X131016151Y-84148840D01*
X131016151Y-84148837D01*
X131016153Y-84148835D01*
X131065440Y-83975606D01*
X131074704Y-83943048D01*
X131094446Y-83730000D01*
X131074704Y-83516952D01*
X131060443Y-83466829D01*
X131016153Y-83311164D01*
X131016150Y-83311158D01*
X130992464Y-83263590D01*
X130920781Y-83119630D01*
X130791841Y-82948886D01*
X130633722Y-82804742D01*
X130633716Y-82804738D01*
X130633713Y-82804736D01*
X130451813Y-82692108D01*
X130451807Y-82692106D01*
X130444688Y-82689348D01*
X130252297Y-82614815D01*
X130076153Y-82581888D01*
X130013874Y-82550221D01*
X129978601Y-82489908D01*
X129981535Y-82420100D01*
X130021744Y-82362960D01*
X130076152Y-82338112D01*
X130252297Y-82305185D01*
X130451810Y-82227893D01*
X130633722Y-82115258D01*
X130791841Y-81971114D01*
X130920781Y-81800370D01*
X131016151Y-81608840D01*
X131016151Y-81608837D01*
X131016153Y-81608835D01*
X131067721Y-81427591D01*
X131074704Y-81403048D01*
X131094446Y-81190000D01*
X131091878Y-81162292D01*
X131074704Y-80976952D01*
X131074703Y-80976949D01*
X131016153Y-80771164D01*
X131016150Y-80771158D01*
X130985438Y-80709480D01*
X130920781Y-80579630D01*
X130791841Y-80408886D01*
X130633722Y-80264742D01*
X130633716Y-80264738D01*
X130633713Y-80264736D01*
X130451813Y-80152108D01*
X130451807Y-80152106D01*
X130252297Y-80074815D01*
X130041980Y-80035500D01*
X129828020Y-80035500D01*
X129617703Y-80074815D01*
X129498050Y-80121169D01*
X129418192Y-80152106D01*
X129418186Y-80152108D01*
X129236286Y-80264736D01*
X129236283Y-80264738D01*
X129236279Y-80264740D01*
X129236278Y-80264742D01*
X129223503Y-80276388D01*
X129078158Y-80408887D01*
X128978975Y-80540227D01*
X128922866Y-80581863D01*
X128880021Y-80589500D01*
X123500829Y-80589500D01*
X123500813Y-80589499D01*
X123493217Y-80589499D01*
X123335103Y-80589499D01*
X123184984Y-80629724D01*
X123115134Y-80628061D01*
X123057271Y-80588899D01*
X123053995Y-80584330D01*
X123053809Y-80584471D01*
X123041018Y-80567534D01*
X122465000Y-81143552D01*
X122465000Y-81137339D01*
X122437741Y-81035606D01*
X122385080Y-80944394D01*
X122310606Y-80869920D01*
X122219394Y-80817259D01*
X122117661Y-80790000D01*
X122111447Y-80790000D01*
X122684912Y-80216533D01*
X122581586Y-80152556D01*
X122581585Y-80152555D01*
X122382162Y-80075299D01*
X122171932Y-80036000D01*
X121958068Y-80036000D01*
X121747837Y-80075299D01*
X121548416Y-80152554D01*
X121548410Y-80152557D01*
X121445087Y-80216532D01*
X121445086Y-80216533D01*
X122018554Y-80790000D01*
X122012339Y-80790000D01*
X121910606Y-80817259D01*
X121819394Y-80869920D01*
X121744920Y-80944394D01*
X121692259Y-81035606D01*
X121665000Y-81137339D01*
X121665000Y-81143553D01*
X121088980Y-80567533D01*
X121079646Y-80579893D01*
X120984321Y-80771330D01*
X120984315Y-80771345D01*
X120925789Y-80977043D01*
X120925788Y-80977045D01*
X120906056Y-81189999D01*
X120906056Y-81190000D01*
X120925788Y-81402954D01*
X120925789Y-81402956D01*
X120984315Y-81608654D01*
X120984321Y-81608669D01*
X121079642Y-81800099D01*
X121079647Y-81800107D01*
X121088980Y-81812465D01*
X121665000Y-81236445D01*
X121665000Y-81242661D01*
X121692259Y-81344394D01*
X121744920Y-81435606D01*
X121819394Y-81510080D01*
X121910606Y-81562741D01*
X122012339Y-81590000D01*
X122018553Y-81590000D01*
X121445372Y-82163181D01*
X121384049Y-82196666D01*
X121357691Y-82199500D01*
X119821473Y-82199500D01*
X119754434Y-82179815D01*
X119708679Y-82127011D01*
X119698735Y-82057853D01*
X119707916Y-82025692D01*
X119724063Y-81988881D01*
X119785108Y-81747821D01*
X119788052Y-81712292D01*
X119805643Y-81500005D01*
X119805643Y-81499994D01*
X119785109Y-81252187D01*
X119785107Y-81252175D01*
X119724063Y-81011118D01*
X119624173Y-80783393D01*
X119488166Y-80575217D01*
X119455955Y-80540227D01*
X119319744Y-80392262D01*
X119123509Y-80239526D01*
X119123507Y-80239525D01*
X119123506Y-80239524D01*
X118904811Y-80121172D01*
X118904802Y-80121169D01*
X118669616Y-80040429D01*
X118424335Y-79999500D01*
X118175665Y-79999500D01*
X117930383Y-80040429D01*
X117695197Y-80121169D01*
X117695188Y-80121172D01*
X117476493Y-80239524D01*
X117280257Y-80392261D01*
X117111833Y-80575217D01*
X116975826Y-80783393D01*
X116875936Y-81011118D01*
X116814892Y-81252175D01*
X116814890Y-81252187D01*
X116794357Y-81499994D01*
X116794357Y-81500005D01*
X116814890Y-81747812D01*
X116814892Y-81747824D01*
X116875936Y-81988878D01*
X116875937Y-81988881D01*
X116892083Y-82025690D01*
X116900986Y-82094989D01*
X116871009Y-82158102D01*
X116811670Y-82194989D01*
X116778527Y-82199500D01*
X115320926Y-82199500D01*
X115253887Y-82179815D01*
X115208132Y-82127011D01*
X115198188Y-82057853D01*
X115207370Y-82025689D01*
X115223588Y-81988714D01*
X115284612Y-81747738D01*
X115284614Y-81747729D01*
X115305141Y-81500005D01*
X115305141Y-81499994D01*
X115284614Y-81252270D01*
X115284612Y-81252261D01*
X115223587Y-81011282D01*
X115123731Y-80783630D01*
X115023434Y-80630116D01*
X114323786Y-81329763D01*
X114312518Y-81287708D01*
X114240110Y-81162292D01*
X114137708Y-81059890D01*
X114012292Y-80987482D01*
X113970235Y-80976212D01*
X114670057Y-80276390D01*
X114670056Y-80276389D01*
X114623229Y-80239943D01*
X114404614Y-80121635D01*
X114404603Y-80121630D01*
X114169493Y-80040916D01*
X113924293Y-80000000D01*
X113675707Y-80000000D01*
X113430506Y-80040916D01*
X113195396Y-80121630D01*
X113195390Y-80121632D01*
X112976761Y-80239949D01*
X112929942Y-80276388D01*
X112929942Y-80276390D01*
X113629765Y-80976212D01*
X113587708Y-80987482D01*
X113462292Y-81059890D01*
X113359890Y-81162292D01*
X113287482Y-81287708D01*
X113276212Y-81329765D01*
X112576564Y-80630116D01*
X112476267Y-80783632D01*
X112376412Y-81011282D01*
X112315387Y-81252261D01*
X112315385Y-81252270D01*
X112294859Y-81499994D01*
X112294859Y-81500005D01*
X112315385Y-81747729D01*
X112315387Y-81747738D01*
X112376411Y-81988714D01*
X112392630Y-82025689D01*
X112401533Y-82094989D01*
X112371556Y-82158102D01*
X112312217Y-82194989D01*
X112279074Y-82199500D01*
X111845097Y-82199500D01*
X111778058Y-82179815D01*
X111757416Y-82163181D01*
X111108728Y-81514493D01*
X111075243Y-81453170D01*
X111074592Y-81408795D01*
X111074175Y-81408757D01*
X111074534Y-81404876D01*
X111074522Y-81404016D01*
X111074698Y-81403068D01*
X111074704Y-81403048D01*
X111094446Y-81190000D01*
X111074704Y-80976952D01*
X111074702Y-80976946D01*
X111074521Y-80975975D01*
X111074569Y-80975497D01*
X111074175Y-80971243D01*
X111075007Y-80971165D01*
X111081550Y-80906460D01*
X111108726Y-80865508D01*
X120480520Y-71493716D01*
X120559577Y-71356784D01*
X120600501Y-71204057D01*
X120600501Y-71045942D01*
X120600501Y-71038347D01*
X120600500Y-71038329D01*
X120600500Y-65452014D01*
X125199500Y-65452014D01*
X125199500Y-67547749D01*
X125199501Y-67547755D01*
X125205908Y-67607362D01*
X125256202Y-67742207D01*
X125256206Y-67742214D01*
X125342452Y-67857423D01*
X125342455Y-67857426D01*
X125457664Y-67943672D01*
X125457671Y-67943676D01*
X125592517Y-67993970D01*
X125592516Y-67993970D01*
X125599444Y-67994714D01*
X125652127Y-68000379D01*
X127347872Y-68000378D01*
X127407483Y-67993970D01*
X127542331Y-67943675D01*
X127657546Y-67857425D01*
X127743796Y-67742210D01*
X127794091Y-67607362D01*
X127800500Y-67547752D01*
X127800499Y-65452007D01*
X127794091Y-65392396D01*
X127743796Y-65257548D01*
X127743795Y-65257547D01*
X127743793Y-65257543D01*
X127657547Y-65142334D01*
X127657544Y-65142331D01*
X127542335Y-65056085D01*
X127542328Y-65056081D01*
X127407482Y-65005787D01*
X127407483Y-65005787D01*
X127347883Y-64999380D01*
X127347881Y-64999379D01*
X127347873Y-64999379D01*
X127347864Y-64999379D01*
X125652129Y-64999379D01*
X125652123Y-64999380D01*
X125592516Y-65005787D01*
X125457671Y-65056081D01*
X125457664Y-65056085D01*
X125342455Y-65142331D01*
X125342452Y-65142334D01*
X125256206Y-65257543D01*
X125256202Y-65257550D01*
X125205908Y-65392396D01*
X125199501Y-65451995D01*
X125199501Y-65452002D01*
X125199500Y-65452014D01*
X120600500Y-65452014D01*
X120600500Y-54429601D01*
X120620185Y-54362562D01*
X120668206Y-54319116D01*
X120681610Y-54312287D01*
X120847219Y-54191966D01*
X120991966Y-54047219D01*
X120991968Y-54047215D01*
X120991971Y-54047213D01*
X121044732Y-53974590D01*
X121112287Y-53881610D01*
X121205220Y-53699219D01*
X121268477Y-53504534D01*
X121300500Y-53302352D01*
X121300500Y-52697648D01*
X121269195Y-52500000D01*
X121268477Y-52495465D01*
X121239127Y-52405137D01*
X121205220Y-52300781D01*
X121205218Y-52300778D01*
X121205218Y-52300776D01*
X121112419Y-52118650D01*
X121112287Y-52118390D01*
X121104556Y-52107749D01*
X120991971Y-51952786D01*
X120847213Y-51808028D01*
X120681613Y-51687715D01*
X120681612Y-51687714D01*
X120681610Y-51687713D01*
X120624653Y-51658691D01*
X120499223Y-51594781D01*
X120304534Y-51531522D01*
X120129995Y-51503878D01*
X120102352Y-51499500D01*
X119897648Y-51499500D01*
X119873329Y-51503351D01*
X119695465Y-51531522D01*
X119500776Y-51594781D01*
X119318386Y-51687715D01*
X119152786Y-51808028D01*
X119008028Y-51952786D01*
X118887715Y-52118386D01*
X118840485Y-52211080D01*
X118792510Y-52261876D01*
X118724689Y-52278671D01*
X118658554Y-52256134D01*
X118619515Y-52211080D01*
X118572419Y-52118650D01*
X118572287Y-52118390D01*
X118564556Y-52107749D01*
X118451971Y-51952786D01*
X118307213Y-51808028D01*
X118141613Y-51687715D01*
X118141612Y-51687714D01*
X118141610Y-51687713D01*
X118084653Y-51658691D01*
X117959223Y-51594781D01*
X117764534Y-51531522D01*
X117589995Y-51503878D01*
X117562352Y-51499500D01*
X117357648Y-51499500D01*
X117333329Y-51503351D01*
X117155465Y-51531522D01*
X116960776Y-51594781D01*
X116778386Y-51687715D01*
X116612786Y-51808028D01*
X116468028Y-51952786D01*
X116347715Y-52118386D01*
X116300485Y-52211080D01*
X116252510Y-52261876D01*
X116184689Y-52278671D01*
X116118554Y-52256134D01*
X116079515Y-52211080D01*
X116032419Y-52118650D01*
X116032287Y-52118390D01*
X116024556Y-52107749D01*
X115911971Y-51952786D01*
X115767213Y-51808028D01*
X115601613Y-51687715D01*
X115601612Y-51687714D01*
X115601610Y-51687713D01*
X115544653Y-51658691D01*
X115419223Y-51594781D01*
X115224534Y-51531522D01*
X115049995Y-51503878D01*
X115022352Y-51499500D01*
X114817648Y-51499500D01*
X114793329Y-51503351D01*
X114615465Y-51531522D01*
X114420776Y-51594781D01*
X114238386Y-51687715D01*
X114072786Y-51808028D01*
X113928028Y-51952786D01*
X113807713Y-52118388D01*
X113760203Y-52211630D01*
X113712228Y-52262426D01*
X113644407Y-52279220D01*
X113578272Y-52256682D01*
X113539234Y-52211628D01*
X113491861Y-52118652D01*
X113371582Y-51953105D01*
X113371582Y-51953104D01*
X113226895Y-51808417D01*
X113061349Y-51688140D01*
X112879029Y-51595244D01*
X112684413Y-51532009D01*
X112630000Y-51523390D01*
X112630000Y-52566988D01*
X112572993Y-52534075D01*
X112445826Y-52500000D01*
X112314174Y-52500000D01*
X112187007Y-52534075D01*
X112130000Y-52566988D01*
X112130000Y-51523390D01*
X112075586Y-51532009D01*
X111880970Y-51595244D01*
X111698650Y-51688140D01*
X111533105Y-51808417D01*
X111533104Y-51808417D01*
X111388417Y-51953104D01*
X111388417Y-51953105D01*
X111268140Y-52118650D01*
X111175244Y-52300968D01*
X111112009Y-52495582D01*
X111080000Y-52697682D01*
X111080000Y-52750000D01*
X111946988Y-52750000D01*
X111914075Y-52807007D01*
X111880000Y-52934174D01*
X111880000Y-53065826D01*
X111914075Y-53192993D01*
X111946988Y-53250000D01*
X111080000Y-53250000D01*
X111080000Y-53302317D01*
X111112009Y-53504417D01*
X111175244Y-53699031D01*
X111268140Y-53881349D01*
X111388417Y-54046894D01*
X111388417Y-54046895D01*
X111533104Y-54191582D01*
X111698650Y-54311859D01*
X111880968Y-54404754D01*
X112075578Y-54467988D01*
X112130000Y-54476607D01*
X112130000Y-53433012D01*
X112187007Y-53465925D01*
X112314174Y-53500000D01*
X112445826Y-53500000D01*
X112572993Y-53465925D01*
X112630000Y-53433012D01*
X112630000Y-54476606D01*
X112684421Y-54467988D01*
X112879031Y-54404754D01*
X113061349Y-54311859D01*
X113226894Y-54191582D01*
X113226895Y-54191582D01*
X113371582Y-54046895D01*
X113371582Y-54046894D01*
X113491861Y-53881347D01*
X113539234Y-53788371D01*
X113587208Y-53737575D01*
X113655028Y-53720779D01*
X113721164Y-53743316D01*
X113760203Y-53788369D01*
X113807713Y-53881611D01*
X113928028Y-54047213D01*
X114072786Y-54191971D01*
X114227749Y-54304556D01*
X114238390Y-54312287D01*
X114319499Y-54353614D01*
X114420776Y-54405218D01*
X114420778Y-54405218D01*
X114420781Y-54405220D01*
X114450201Y-54414779D01*
X114615465Y-54468477D01*
X114666796Y-54476607D01*
X114817648Y-54500500D01*
X114817650Y-54500500D01*
X114820771Y-54500746D01*
X114821886Y-54501171D01*
X114822460Y-54501262D01*
X114822440Y-54501382D01*
X114886059Y-54525632D01*
X114927527Y-54581865D01*
X114932011Y-54651591D01*
X114898718Y-54712044D01*
X108612286Y-60998478D01*
X108500481Y-61110282D01*
X108500479Y-61110285D01*
X108450361Y-61197094D01*
X108450359Y-61197096D01*
X108421425Y-61247209D01*
X108421424Y-61247210D01*
X108421423Y-61247215D01*
X108380499Y-61399943D01*
X108380499Y-61399945D01*
X108380499Y-61568046D01*
X108380500Y-61568059D01*
X108380500Y-82689330D01*
X108380499Y-82689348D01*
X108380499Y-82855054D01*
X108380498Y-82855054D01*
X102586391Y-82855054D01*
X102684912Y-82756533D01*
X102581586Y-82692556D01*
X102581585Y-82692555D01*
X102382162Y-82615299D01*
X102203435Y-82581889D01*
X102141154Y-82550221D01*
X102105881Y-82489908D01*
X102108815Y-82420100D01*
X102149024Y-82362960D01*
X102203435Y-82338111D01*
X102382162Y-82304700D01*
X102581585Y-82227444D01*
X102581589Y-82227442D01*
X102684911Y-82163466D01*
X102684911Y-82163465D01*
X102111448Y-81590000D01*
X102117661Y-81590000D01*
X102219394Y-81562741D01*
X102310606Y-81510080D01*
X102385080Y-81435606D01*
X102437741Y-81344394D01*
X102465000Y-81242661D01*
X102465000Y-81236447D01*
X103041018Y-81812464D01*
X103041019Y-81812464D01*
X103050352Y-81800107D01*
X103050355Y-81800102D01*
X103145678Y-81608669D01*
X103145684Y-81608654D01*
X103204210Y-81402956D01*
X103204211Y-81402954D01*
X103223944Y-81190000D01*
X103223944Y-81189999D01*
X103204211Y-80977045D01*
X103204210Y-80977043D01*
X103145684Y-80771345D01*
X103145678Y-80771330D01*
X103050357Y-80579901D01*
X103050355Y-80579898D01*
X103041018Y-80567534D01*
X102465000Y-81143552D01*
X102465000Y-81137339D01*
X102437741Y-81035606D01*
X102385080Y-80944394D01*
X102310606Y-80869920D01*
X102219394Y-80817259D01*
X102117661Y-80790000D01*
X102111447Y-80790000D01*
X102684912Y-80216533D01*
X102581586Y-80152556D01*
X102581585Y-80152555D01*
X102382162Y-80075299D01*
X102171932Y-80036000D01*
X101958068Y-80036000D01*
X101747837Y-80075299D01*
X101548416Y-80152554D01*
X101548410Y-80152557D01*
X101445087Y-80216532D01*
X101445086Y-80216533D01*
X102018554Y-80790000D01*
X102012339Y-80790000D01*
X101910606Y-80817259D01*
X101819394Y-80869920D01*
X101744920Y-80944394D01*
X101692259Y-81035606D01*
X101665000Y-81137339D01*
X101665000Y-81143553D01*
X101088980Y-80567533D01*
X101079646Y-80579893D01*
X100984321Y-80771330D01*
X100984315Y-80771345D01*
X100925789Y-80977043D01*
X100925788Y-80977045D01*
X100906056Y-81189999D01*
X100500500Y-81189999D01*
X100500500Y-66197561D01*
X104700000Y-66197561D01*
X104700000Y-66249879D01*
X105653590Y-66249879D01*
X105603963Y-66335835D01*
X105575000Y-66443927D01*
X105575000Y-66555831D01*
X105603963Y-66663923D01*
X105653590Y-66749879D01*
X104700000Y-66749879D01*
X104700000Y-66802196D01*
X104732009Y-67004296D01*
X104795244Y-67198910D01*
X104888140Y-67381228D01*
X105008417Y-67546773D01*
X105008417Y-67546774D01*
X105153104Y-67691461D01*
X105318650Y-67811738D01*
X105500968Y-67904633D01*
X105695578Y-67967867D01*
X105750000Y-67976486D01*
X105750000Y-66846288D01*
X105835956Y-66895916D01*
X105944048Y-66924879D01*
X106055952Y-66924879D01*
X106164044Y-66895916D01*
X106250000Y-66846288D01*
X106250000Y-67976485D01*
X106304421Y-67967867D01*
X106499031Y-67904633D01*
X106681349Y-67811738D01*
X106846894Y-67691461D01*
X106846895Y-67691461D01*
X106991582Y-67546774D01*
X106991582Y-67546773D01*
X107111859Y-67381228D01*
X107204755Y-67198910D01*
X107267990Y-67004296D01*
X107300000Y-66802196D01*
X107300000Y-66749879D01*
X106346410Y-66749879D01*
X106396037Y-66663923D01*
X106425000Y-66555831D01*
X106425000Y-66443927D01*
X106396037Y-66335835D01*
X106346410Y-66249879D01*
X107300000Y-66249879D01*
X107300000Y-66197561D01*
X107267990Y-65995461D01*
X107204755Y-65800847D01*
X107111859Y-65618529D01*
X106991582Y-65452984D01*
X106991582Y-65452983D01*
X106846895Y-65308296D01*
X106681349Y-65188019D01*
X106499029Y-65095123D01*
X106304413Y-65031888D01*
X106250000Y-65023269D01*
X106250000Y-66153469D01*
X106164044Y-66103842D01*
X106055952Y-66074879D01*
X105944048Y-66074879D01*
X105835956Y-66103842D01*
X105750000Y-66153469D01*
X105750000Y-65023269D01*
X105695586Y-65031888D01*
X105500970Y-65095123D01*
X105318650Y-65188019D01*
X105153105Y-65308296D01*
X105153104Y-65308296D01*
X105008417Y-65452983D01*
X105008417Y-65452984D01*
X104888140Y-65618529D01*
X104795244Y-65800847D01*
X104732009Y-65995461D01*
X104700000Y-66197561D01*
X100500500Y-66197561D01*
X100500500Y-50624500D01*
X100520185Y-50557461D01*
X100572989Y-50511706D01*
X100624500Y-50500500D01*
X131375500Y-50500500D01*
X131442539Y-50520185D01*
G37*
%TD.AperFunction*%
%TD*%
M02*
